<svg xmlns="http://www.w3.org/2000/svg" version="1.1" xmlns:xlink="http://www.w3.org/1999/xlink" xmlns:svgjs="http://svgjs.dev/svgjs" width="1000" height="781" viewBox="0 0 1000 781"><g transform="matrix(1,0,0,1,-0.6746212034821042,0.31677822269722355)"><svg viewBox="0 0 316 247" data-background-color="#ffffff" preserveAspectRatio="xMidYMid meet" height="781" width="1000" xmlns="http://www.w3.org/2000/svg" xmlns:xlink="http://www.w3.org/1999/xlink"><g id="tight-bounds" transform="matrix(1,0,0,1,0.21318030030033697,-0.09997365579206985)"><svg viewBox="0 0 315.5736393993993 247.2" height="247.2" width="315.5736393993993"><g><svg viewBox="0 0 315.5736393993993 247.2" height="247.2" width="315.5736393993993"><g><svg viewBox="0 0 315.5736393993993 247.2" height="247.2" width="315.5736393993993"><g id="textblocktransform"><svg viewBox="0 0 315.5736393993993 247.2" height="247.2" width="315.5736393993993" id="textblock"><g><svg viewBox="0 0 315.5736393993993 247.2" height="247.2" width="315.5736393993993"><path d="M314.835 53.02C313.351 27.36 309.123 20.227 309.123 20.227 296.142-6.202 279.941-0.506 265.387 3.292 239.692 3.446 214.1 9.091 188.464 12.119 134.654 12.581 80.385 4.986 26.842 23.717 21.813 29.464-5.218 24.846 0.895 56.304 2.497 69.39 8.342 83.913 8.164 95.922 8.965 98.026 10.078 93.202 10.553 96.23 12.214 104.39 14.929 100.541 17.155 105.365 14.054 118.246 16.279 128.971 18.401 140.21 14.662 143.135 9.87 141.749 7.719 151.449 7.497 158.479 6.295 157.145 4.974 156.837 4.01 156.632 2.067 157.402 2.393 159.608 3.506 167.152-1.271 171.514 1.725 178.904-0.337 186.91 3.15 193.838 2.675 202.511 2.616 204.255 2.942 205.744 3.461 206.154 5.761 208.361 2.408 212.672 2.764 217.342 26.353 249.262 51.945 227.195 76.112 241.872 82.388 231.608 77.67 245.516 80.177 243.36 82.135 240.846 83.56 251.263 85.77 245.362 86.111 243.668 85.592 239.665 86.809 240.435 87.447 240.846 88.01 240.743 88.099 238.382 88.233 234.841 87.061 237.048 86.749 235.201 90.117 225.861 89.286 248.081 92.446 247.158 92.298 244.438 91.378 240.538 93.262 241.051 95.132 237.151 95.191 233.918 96.852 242.693 96.912 244.592 97.209 245.926 97.683 246.85 102.876 237.305 108.039 250.237 113.483 245.926 116.821 241.205 120.026 248.492 123.409 246.696 124.595 245.259 125.797 242.693 126.939 247.004 140.93 247.928 155.84 244.079 169.103 247.158 204.546 241.41 242.421 249.518 279.793 241.923 288.605 238.998 297.759 234.841 306.349 231.506 306.349 231.506 313.307 222.371 313.307 181.316S314.79 145.393 315.013 112.703C315.235 80.013 316.274 78.679 314.79 53.02Z" opacity="1" fill="#ca3433" data-fill-palette-color="tertiary"></path><g transform="matrix(1,0,0,1,55.76831999999999,26.230666666666668)"><svg width="204.03699939939935" viewBox="1.399999976158142 -30.920000076293945 46.519996643066406 44.400001525878906" height="194.73866666666666" data-palette-color="#ffffff"><path d="M24.44-1.44L24.44-1.44Q24.44 4.52 26.56 4.52L26.56 4.52Q27.68 4.52 28.84 2.16L28.84 2.16Q29.04 1.76 29.36 1.86 29.68 1.96 29.68 2.1 29.68 2.24 29.28 3.12 28.88 4 28.02 4.92 27.16 5.84 26.28 5.84L26.28 5.84Q22.12 5.84 22.12-2.44L22.12-2.44Q22.12-6.76 22.88-11.6L22.88-11.6 22.48-11.6Q16.36 0 13.04 0L13.04 0Q9 0 9-4.8L9-4.8Q9-6.72 10.18-10.62 11.36-14.52 12.56-18.68 13.76-22.84 13.76-25.12L13.76-25.12Q13.76-29.92 9.84-29.92L9.84-29.92Q6.2-29.92 4.4-25.76L4.4-25.76Q3.2-22.96 3.2-20.16L3.2-20.16Q3.2-18.8 3.48-17.44L3.48-17.44Q4.36-13.28 7.2-13.28L7.2-13.28Q6.92-12.72 6.44-12.72L6.44-12.72Q2.84-12.72 1.76-17.28L1.76-17.28Q1.4-18.72 1.4-20.16L1.4-20.16Q1.4-23.24 2.96-26.36L2.96-26.36Q5.28-30.92 9.8-30.92L9.8-30.92Q13.28-30.92 14.86-28.98 16.44-27.04 16.44-23.94 16.44-20.84 14.2-13.42 11.96-6 11.96-3.7 11.96-1.4 13.52-1.4L13.52-1.4Q14.8-1.4 17.36-5.32L17.36-5.32Q21.56-11.84 24.72-19.44L24.72-19.44Q25.96-22.44 27.32-22.44L27.32-22.44Q28.2-22.44 28.2-21.52L28.2-21.52Q26.48-17.44 25.46-11.66 24.44-5.88 24.44-1.44ZM38.24-3.68L38.24-3.68Q38.24-1.28 39.52-1.28L39.52-1.28Q41.16-1.28 43.12-5.68L43.12-5.68Q45.4-10.72 45.4-15.12L45.4-15.12Q45.4-18.12 43.82-18.12 42.24-18.12 40.36-15.68 38.48-13.24 37.02-10.02 35.56-6.8 34.52-3.94 33.48-1.08 33.26 0.3 33.04 1.68 32.92 2.38 32.8 3.08 32.54 4.6 32.28 6.12 32.06 6.92 31.84 7.72 31.48 8.94 31.12 10.16 30.74 10.82 30.36 11.48 29.88 12.16L29.88 12.16Q28.92 13.48 27.44 13.48L27.44 13.48Q25.52 13.48 25.52 11.28L25.52 11.28Q25.52 7.36 31.52-3.48L31.52-3.48Q32.12-7.88 32.76-10.6L32.76-10.6Q34.16-17.04 35.74-20.58 37.32-24.12 38.6-24.12L38.6-24.12Q39.24-24.12 39.24-23.36L39.24-23.36Q37.32-18.28 35.28-10.48L35.28-10.48 35.04-9.56 35.56-9.56Q40.12-19.48 44.16-19.48L44.16-19.48Q47.92-19.48 47.92-13.52L47.92-13.52Q47.92-9.2 45.72-4.88L45.72-4.88Q43.28 0 39.88 0L39.88 0Q37.12 0 37.12-3.6L37.12-3.6Q37.12-5.52 38.18-8.02 39.24-10.52 40.96-11.72L40.96-11.72Q41.32-11.92 41.56-11.56L41.56-11.56Q41.6-11.36 41.52-11.28L41.52-11.28Q40-10.08 39.12-7.76 38.24-5.44 38.24-3.68ZM26.6 10.92L26.6 10.92Q26.6 12.12 27.48 12.12L27.48 12.12Q29.28 12.12 30.16 7.24L30.16 7.24Q30.48 5.56 31.28-1.24L31.28-1.24Q27.64 5.8 26.76 9.68L26.76 9.68Q26.6 10.4 26.6 10.92Z" opacity="1" transform="matrix(1,0,0,1,0,0)" fill="#ffffff" class="undefined-text-0" data-fill-palette-color="quaternary" id="text-0"></path></svg></g></svg></g></svg></g></svg></g><g></g></svg></g><defs></defs></svg><rect width="315.5736393993993" height="247.2" fill="none" stroke="none" visibility="hidden"></rect></g></svg></g></svg>